%TF.GenerationSoftware,KiCad,Pcbnew,5.1.9-1*%
%TF.CreationDate,2021-05-15T17:01:11+02:00*%
%TF.ProjectId,kicad-test1,6b696361-642d-4746-9573-74312e6b6963,rev?*%
%TF.SameCoordinates,Original*%
%TF.FileFunction,Copper,L2,Bot*%
%TF.FilePolarity,Positive*%
%FSLAX46Y46*%
G04 Gerber Fmt 4.6, Leading zero omitted, Abs format (unit mm)*
G04 Created by KiCad (PCBNEW 5.1.9-1) date 2021-05-15 17:01:11*
%MOMM*%
%LPD*%
G01*
G04 APERTURE LIST*
%TA.AperFunction,ComponentPad*%
%ADD10O,1.600000X1.600000*%
%TD*%
%TA.AperFunction,ComponentPad*%
%ADD11C,1.600000*%
%TD*%
%TA.AperFunction,ComponentPad*%
%ADD12C,1.800000*%
%TD*%
%TA.AperFunction,ComponentPad*%
%ADD13R,1.800000X1.800000*%
%TD*%
%TA.AperFunction,NonConductor*%
%ADD14C,0.254000*%
%TD*%
%TA.AperFunction,NonConductor*%
%ADD15C,0.100000*%
%TD*%
G04 APERTURE END LIST*
D10*
%TO.P,R1,2*%
%TO.N,Net-(D1-Pad2)*%
X115570000Y-86360000D03*
D11*
%TO.P,R1,1*%
%TO.N,VCC*%
X118110000Y-86360000D03*
%TD*%
D12*
%TO.P,D1,2*%
%TO.N,Net-(D1-Pad2)*%
X106680000Y-86360000D03*
D13*
%TO.P,D1,1*%
%TO.N,GND*%
X104140000Y-86360000D03*
%TD*%
D14*
X125603000Y-92583000D02*
X99187000Y-92583000D01*
X99187000Y-85460000D01*
X102601928Y-85460000D01*
X102601928Y-87260000D01*
X102614188Y-87384482D01*
X102650498Y-87504180D01*
X102709463Y-87614494D01*
X102788815Y-87711185D01*
X102885506Y-87790537D01*
X102995820Y-87849502D01*
X103115518Y-87885812D01*
X103240000Y-87898072D01*
X105040000Y-87898072D01*
X105164482Y-87885812D01*
X105284180Y-87849502D01*
X105394494Y-87790537D01*
X105491185Y-87711185D01*
X105570537Y-87614494D01*
X105629502Y-87504180D01*
X105635056Y-87485873D01*
X105701495Y-87552312D01*
X105952905Y-87720299D01*
X106232257Y-87836011D01*
X106528816Y-87895000D01*
X106831184Y-87895000D01*
X107127743Y-87836011D01*
X107407095Y-87720299D01*
X107658505Y-87552312D01*
X107872312Y-87338505D01*
X108040299Y-87087095D01*
X108156011Y-86807743D01*
X108215000Y-86511184D01*
X108215000Y-86218665D01*
X114135000Y-86218665D01*
X114135000Y-86501335D01*
X114190147Y-86778574D01*
X114298320Y-87039727D01*
X114455363Y-87274759D01*
X114655241Y-87474637D01*
X114890273Y-87631680D01*
X115151426Y-87739853D01*
X115428665Y-87795000D01*
X115711335Y-87795000D01*
X115988574Y-87739853D01*
X116249727Y-87631680D01*
X116484759Y-87474637D01*
X116684637Y-87274759D01*
X116840000Y-87042241D01*
X116995363Y-87274759D01*
X117195241Y-87474637D01*
X117430273Y-87631680D01*
X117691426Y-87739853D01*
X117968665Y-87795000D01*
X118251335Y-87795000D01*
X118528574Y-87739853D01*
X118789727Y-87631680D01*
X119024759Y-87474637D01*
X119224637Y-87274759D01*
X119381680Y-87039727D01*
X119489853Y-86778574D01*
X119545000Y-86501335D01*
X119545000Y-86218665D01*
X119489853Y-85941426D01*
X119381680Y-85680273D01*
X119224637Y-85445241D01*
X119024759Y-85245363D01*
X118789727Y-85088320D01*
X118528574Y-84980147D01*
X118251335Y-84925000D01*
X117968665Y-84925000D01*
X117691426Y-84980147D01*
X117430273Y-85088320D01*
X117195241Y-85245363D01*
X116995363Y-85445241D01*
X116840000Y-85677759D01*
X116684637Y-85445241D01*
X116484759Y-85245363D01*
X116249727Y-85088320D01*
X115988574Y-84980147D01*
X115711335Y-84925000D01*
X115428665Y-84925000D01*
X115151426Y-84980147D01*
X114890273Y-85088320D01*
X114655241Y-85245363D01*
X114455363Y-85445241D01*
X114298320Y-85680273D01*
X114190147Y-85941426D01*
X114135000Y-86218665D01*
X108215000Y-86218665D01*
X108215000Y-86208816D01*
X108156011Y-85912257D01*
X108040299Y-85632905D01*
X107872312Y-85381495D01*
X107658505Y-85167688D01*
X107407095Y-84999701D01*
X107127743Y-84883989D01*
X106831184Y-84825000D01*
X106528816Y-84825000D01*
X106232257Y-84883989D01*
X105952905Y-84999701D01*
X105701495Y-85167688D01*
X105635056Y-85234127D01*
X105629502Y-85215820D01*
X105570537Y-85105506D01*
X105491185Y-85008815D01*
X105394494Y-84929463D01*
X105284180Y-84870498D01*
X105164482Y-84834188D01*
X105040000Y-84821928D01*
X103240000Y-84821928D01*
X103115518Y-84834188D01*
X102995820Y-84870498D01*
X102885506Y-84929463D01*
X102788815Y-85008815D01*
X102709463Y-85105506D01*
X102650498Y-85215820D01*
X102614188Y-85335518D01*
X102601928Y-85460000D01*
X99187000Y-85460000D01*
X99187000Y-78867000D01*
X125603000Y-78867000D01*
X125603000Y-92583000D01*
%TA.AperFunction,NonConductor*%
D15*
G36*
X125603000Y-92583000D02*
G01*
X99187000Y-92583000D01*
X99187000Y-85460000D01*
X102601928Y-85460000D01*
X102601928Y-87260000D01*
X102614188Y-87384482D01*
X102650498Y-87504180D01*
X102709463Y-87614494D01*
X102788815Y-87711185D01*
X102885506Y-87790537D01*
X102995820Y-87849502D01*
X103115518Y-87885812D01*
X103240000Y-87898072D01*
X105040000Y-87898072D01*
X105164482Y-87885812D01*
X105284180Y-87849502D01*
X105394494Y-87790537D01*
X105491185Y-87711185D01*
X105570537Y-87614494D01*
X105629502Y-87504180D01*
X105635056Y-87485873D01*
X105701495Y-87552312D01*
X105952905Y-87720299D01*
X106232257Y-87836011D01*
X106528816Y-87895000D01*
X106831184Y-87895000D01*
X107127743Y-87836011D01*
X107407095Y-87720299D01*
X107658505Y-87552312D01*
X107872312Y-87338505D01*
X108040299Y-87087095D01*
X108156011Y-86807743D01*
X108215000Y-86511184D01*
X108215000Y-86218665D01*
X114135000Y-86218665D01*
X114135000Y-86501335D01*
X114190147Y-86778574D01*
X114298320Y-87039727D01*
X114455363Y-87274759D01*
X114655241Y-87474637D01*
X114890273Y-87631680D01*
X115151426Y-87739853D01*
X115428665Y-87795000D01*
X115711335Y-87795000D01*
X115988574Y-87739853D01*
X116249727Y-87631680D01*
X116484759Y-87474637D01*
X116684637Y-87274759D01*
X116840000Y-87042241D01*
X116995363Y-87274759D01*
X117195241Y-87474637D01*
X117430273Y-87631680D01*
X117691426Y-87739853D01*
X117968665Y-87795000D01*
X118251335Y-87795000D01*
X118528574Y-87739853D01*
X118789727Y-87631680D01*
X119024759Y-87474637D01*
X119224637Y-87274759D01*
X119381680Y-87039727D01*
X119489853Y-86778574D01*
X119545000Y-86501335D01*
X119545000Y-86218665D01*
X119489853Y-85941426D01*
X119381680Y-85680273D01*
X119224637Y-85445241D01*
X119024759Y-85245363D01*
X118789727Y-85088320D01*
X118528574Y-84980147D01*
X118251335Y-84925000D01*
X117968665Y-84925000D01*
X117691426Y-84980147D01*
X117430273Y-85088320D01*
X117195241Y-85245363D01*
X116995363Y-85445241D01*
X116840000Y-85677759D01*
X116684637Y-85445241D01*
X116484759Y-85245363D01*
X116249727Y-85088320D01*
X115988574Y-84980147D01*
X115711335Y-84925000D01*
X115428665Y-84925000D01*
X115151426Y-84980147D01*
X114890273Y-85088320D01*
X114655241Y-85245363D01*
X114455363Y-85445241D01*
X114298320Y-85680273D01*
X114190147Y-85941426D01*
X114135000Y-86218665D01*
X108215000Y-86218665D01*
X108215000Y-86208816D01*
X108156011Y-85912257D01*
X108040299Y-85632905D01*
X107872312Y-85381495D01*
X107658505Y-85167688D01*
X107407095Y-84999701D01*
X107127743Y-84883989D01*
X106831184Y-84825000D01*
X106528816Y-84825000D01*
X106232257Y-84883989D01*
X105952905Y-84999701D01*
X105701495Y-85167688D01*
X105635056Y-85234127D01*
X105629502Y-85215820D01*
X105570537Y-85105506D01*
X105491185Y-85008815D01*
X105394494Y-84929463D01*
X105284180Y-84870498D01*
X105164482Y-84834188D01*
X105040000Y-84821928D01*
X103240000Y-84821928D01*
X103115518Y-84834188D01*
X102995820Y-84870498D01*
X102885506Y-84929463D01*
X102788815Y-85008815D01*
X102709463Y-85105506D01*
X102650498Y-85215820D01*
X102614188Y-85335518D01*
X102601928Y-85460000D01*
X99187000Y-85460000D01*
X99187000Y-78867000D01*
X125603000Y-78867000D01*
X125603000Y-92583000D01*
G37*
%TD.AperFunction*%
M02*
